<?xml version="1.0" standalone="no"?>
<!DOCTYPE svg PUBLIC "-//W3C//DTD SVG 20010904//EN"
 "http://www.w3.org/TR/2001/REC-SVG-20010904/DTD/svg10.dtd">
<svg version="1.0" xmlns="http://www.w3.org/2000/svg"
 width="397.000000pt" height="331.000000pt" viewBox="0 0 397.000000 331.000000"
 preserveAspectRatio="xMidYMid meet">

<g transform="translate(0.000000,331.000000) scale(0.100000,-0.100000)"
fill="#000000" stroke="none">
<path d="M1825 3018 c-76 -41 -57 -151 50 -282 l45 -56 0 -100 0 -100 -75 0
-75 0 0 -230 0 -230 -80 0 -80 0 0 140 0 140 -75 0 -75 0 0 96 0 96 44 50
c113 129 128 261 33 286 -41 11 -87 -1 -110 -29 l-18 -22 -27 25 c-34 32 -63
39 -107 27 -36 -10 -65 -49 -65 -87 0 -41 33 -111 85 -180 l55 -73 0 -95 0
-94 -75 0 -75 0 0 -140 0 -140 -102 0 c-134 0 -219 -14 -293 -49 -159 -74
-195 -204 -107 -384 22 -45 52 -94 66 -109 l26 -27 0 -591 0 -590 1210 0 1210
0 0 609 c0 495 2 611 13 620 8 6 31 47 51 91 85 180 48 308 -109 381 -76 36
-159 49 -307 49 l-118 0 0 140 0 140 -75 0 -75 0 0 95 0 95 46 57 c91 112 118
210 69 258 -37 38 -106 37 -146 -1 l-26 -24 -18 20 c-39 43 -122 42 -157 -1
-40 -47 -9 -147 76 -252 l46 -57 0 -95 0 -95 -75 0 -75 0 0 -140 0 -140 -75 0
-75 0 0 230 0 229 -77 3 -78 3 -3 96 -3 97 44 51 c98 114 129 223 79 273 -34
35 -115 33 -146 -3 l-22 -26 -32 28 c-34 31 -80 38 -117 17z m245 -818 l0
-180 -100 0 -100 0 0 173 c0 96 3 177 7 180 3 4 48 7 100 7 l93 0 0 -180z
m-562 -92 l3 -88 -101 0 -100 0 0 90 0 91 98 -3 97 -3 3 -87z m1122 2 l0 -90
-95 0 -95 0 0 90 0 90 95 0 95 0 0 -90z m438 -214 c100 -27 141 -67 142 -137
0 -95 -63 -212 -139 -257 -39 -23 -57 -27 -116 -26 -86 1 -153 26 -255 93
l-75 49 -27 -19 c-53 -38 -175 -89 -248 -105 -123 -25 -221 0 -309 82 l-58 53
-44 -45 c-84 -85 -192 -116 -319 -90 -73 16 -195 67 -248 105 l-27 19 -75 -49
c-102 -67 -169 -92 -255 -93 -59 -1 -77 3 -116 26 -76 45 -139 162 -139 258 0
64 36 102 123 129 60 19 97 20 1097 20 861 1 1044 -2 1088 -13z m-1663 -437
c106 -55 182 -74 300 -74 104 0 114 2 175 32 36 18 74 39 86 48 19 14 23 14
47 -5 14 -11 52 -33 84 -48 52 -24 69 -27 168 -27 94 0 121 4 190 28 44 15 99
38 122 52 l43 24 82 -44 c46 -24 107 -50 137 -59 67 -20 173 -20 226 -1 22 8
41 15 43 15 1 0 1 -231 0 -512 l-3 -513 -1102 -3 -1103 -2 0 504 0 504 84 -5
c100 -7 182 15 291 76 39 22 72 39 75 38 3 -1 28 -14 55 -28z"/>
</g>
</svg>
