<?xml version="1.0" standalone="no"?>
<!DOCTYPE svg PUBLIC "-//W3C//DTD SVG 20010904//EN"
 "http://www.w3.org/TR/2001/REC-SVG-20010904/DTD/svg10.dtd">
<svg version="1.0" xmlns="http://www.w3.org/2000/svg"
 width="397.000000pt" height="331.000000pt" viewBox="0 0 397.000000 331.000000"
 preserveAspectRatio="xMidYMid meet">

<g transform="translate(0.000000,331.000000) scale(0.100000,-0.100000)"
fill="#000000" stroke="none">
<path d="M2921 2909 c0 -3 -6 -32 -12 -65 -21 -115 -72 -165 -182 -180 -50 -7
-75 -24 -34 -24 42 0 125 -30 156 -56 29 -24 52 -79 67 -159 l7 -40 13 68 c7
38 21 83 31 100 23 40 88 74 160 83 61 7 55 18 -17 28 -103 15 -159 76 -179
196 -5 30 -9 52 -10 49z"/>
<path d="M931 2719 c-64 -12 -162 -61 -209 -103 -276 -250 -114 -764 433
-1370 96 -106 319 -316 335 -316 16 0 237 208 331 312 51 57 96 104 99 105 3
1 28 -38 55 -88 87 -157 224 -329 419 -526 264 -265 262 -264 509 -20 564 560
743 1082 467 1358 -174 175 -468 187 -670 28 -44 -34 -50 -37 -62 -22 -25 32
-128 91 -188 109 l-60 18 0 86 c0 100 -19 175 -62 242 -146 230 -523 265 -721
66 -29 -29 -63 -74 -76 -100 -30 -62 -52 -63 -81 -3 -82 170 -305 266 -519
224z m1495 -649 c76 -26 134 -73 185 -147 23 -35 44 -63 45 -63 2 0 21 26 43
58 52 77 85 106 156 139 54 25 70 28 170 28 100 0 115 -3 166 -27 70 -35 121
-84 157 -151 25 -48 27 -61 27 -162 0 -89 -4 -123 -24 -180 -58 -171 -182
-377 -344 -570 -97 -115 -331 -345 -352 -345 -20 0 -277 257 -370 370 -153
185 -271 386 -327 555 -31 96 -32 249 -2 316 40 85 112 150 205 183 64 22 196
21 265 -4z"/>
<path d="M846 1031 c-24 -181 -85 -241 -279 -273 l-72 -12 90 -18 c174 -35
224 -81 253 -231 9 -48 20 -87 23 -87 4 0 9 21 13 48 9 69 35 142 64 181 32
43 90 68 205 90 l92 17 -60 8 c-86 11 -179 43 -213 71 -39 33 -69 99 -84 185
-7 38 -15 70 -19 70 -3 0 -9 -22 -13 -49z"/>
</g>
</svg>
