<?xml version="1.0" standalone="no"?>
<!DOCTYPE svg PUBLIC "-//W3C//DTD SVG 20010904//EN"
 "http://www.w3.org/TR/2001/REC-SVG-20010904/DTD/svg10.dtd">
<svg version="1.0" xmlns="http://www.w3.org/2000/svg"
 width="397.000000pt" height="331.000000pt" viewBox="0 0 397.000000 331.000000"
 preserveAspectRatio="xMidYMid meet">

<g transform="translate(0.000000,331.000000) scale(0.100000,-0.100000)"
fill="#000000" stroke="none">
<path d="M1376 2878 c-11 -16 -16 -46 -16 -100 l0 -77 -268 -3 c-265 -3 -268
-3 -317 -29 -57 -29 -110 -92 -125 -149 -7 -26 -10 -349 -8 -987 3 -903 4
-950 22 -983 26 -49 64 -88 111 -113 l40 -22 1175 0 1175 0 40 22 c47 25 85
64 111 113 18 33 19 80 22 983 2 638 -1 961 -8 987 -15 57 -68 120 -125 149
-49 26 -53 26 -307 29 l-258 3 0 69 c0 38 -4 80 -10 94 -11 30 -49 42 -79 26
-19 -10 -21 -20 -21 -100 l0 -90 -530 0 -530 0 0 83 c0 69 -3 87 -18 100 -26
23 -58 21 -76 -5z m-16 -386 c0 -105 10 -125 60 -120 46 4 60 33 60 131 l0 77
520 0 520 0 0 -87 c0 -96 13 -123 58 -123 50 0 62 24 62 122 l0 88 245 0 c281
0 294 -3 326 -73 15 -35 19 -66 19 -189 l0 -148 -1240 0 -1240 0 0 145 c0 166
13 215 64 246 28 17 54 19 289 19 l257 0 0 -88z m1868 -1159 c-3 -675 -4 -720
-21 -745 -10 -15 -30 -35 -45 -45 -26 -17 -81 -18 -1172 -18 -1091 0 -1146 1
-1172 18 -15 10 -35 30 -45 45 -17 25 -18 70 -21 745 l-3 717 1241 0 1241 0
-3 -717z"/>
<path d="M1693 1706 c-102 -33 -148 -103 -141 -214 10 -142 104 -299 298 -494
69 -71 132 -128 140 -128 8 0 71 57 140 128 141 142 226 261 272 380 75 192
-8 337 -192 337 -85 -1 -149 -29 -187 -84 -15 -22 -30 -40 -33 -40 -3 0 -18
18 -33 40 -48 70 -172 105 -264 75z"/>
</g>
</svg>
