<?xml version="1.0" standalone="no"?>
<!DOCTYPE svg PUBLIC "-//W3C//DTD SVG 20010904//EN"
 "http://www.w3.org/TR/2001/REC-SVG-20010904/DTD/svg10.dtd">
<svg version="1.0" xmlns="http://www.w3.org/2000/svg"
 width="397.000000pt" height="331.000000pt" viewBox="0 0 397.000000 331.000000"
 preserveAspectRatio="xMidYMid meet">

<g transform="translate(0.000000,331.000000) scale(0.100000,-0.100000)"
fill="#000000" stroke="none">
<path d="M2731 2991 c-16 -11 -29 -91 -30 -192 -1 -52 3 -69 17 -82 24 -22 45
-21 67 3 14 15 19 43 23 136 4 106 3 118 -13 131 -22 15 -44 17 -64 4z"/>
<path d="M2338 2919 c-36 -20 -21 -60 58 -161 63 -80 81 -98 103 -98 33 0 51
17 51 48 0 21 -95 156 -146 206 -18 18 -41 20 -66 5z"/>
<path d="M3128 2917 c-7 -7 -42 -57 -77 -111 -57 -86 -63 -100 -55 -124 8 -22
16 -27 44 -27 32 0 39 6 83 70 27 39 60 89 74 113 24 40 24 44 9 67 -18 28
-56 33 -78 12z"/>
<path d="M2078 2639 c-26 -15 -23 -65 5 -83 25 -16 196 -66 225 -66 22 0 52
30 52 52 0 28 -37 49 -141 78 -116 33 -117 34 -141 19z"/>
<path d="M3365 2589 c-148 -27 -156 -30 -166 -55 -11 -30 2 -60 29 -68 31 -10
245 33 260 51 16 23 15 48 -4 67 -17 18 -43 18 -119 5z"/>
<path d="M2610 2562 c-8 -3 -72 -43 -142 -88 -112 -73 -128 -87 -128 -111 0
-16 40 -95 99 -197 55 -94 102 -178 106 -186 4 -12 -10 -19 -66 -32 -84 -20
-183 -65 -250 -113 l-48 -34 -73 18 c-40 10 -108 22 -150 26 l-78 7 8 57 c10
80 7 199 -7 249 -13 47 -60 106 -102 128 -41 21 -125 18 -175 -7 -58 -28 -111
-89 -119 -136 -11 -65 -11 -65 -50 -38 -48 32 -108 40 -168 21 -131 -40 -190
-157 -137 -274 23 -52 105 -135 182 -187 l57 -37 -50 -57 c-65 -72 -143 -230
-163 -333 -79 -388 137 -763 512 -888 221 -74 463 -42 657 86 l68 44 50 -15
c198 -59 430 -30 612 77 83 49 216 180 264 261 181 308 135 692 -115 941 -65
66 -181 144 -246 167 -21 7 -38 16 -38 20 0 3 63 80 140 170 140 164 153 187
130 229 -5 10 -56 60 -113 112 l-103 95 -155 12 c-84 7 -163 14 -174 15 -11 2
-27 1 -35 -2z m188 -116 l144 -13 36 -36 c36 -36 36 -37 12 -37 -40 0 -413 31
-429 36 -14 5 63 62 84 63 6 0 74 -6 153 -13z m-92 -260 c-11 -151 -18 -216
-25 -216 -6 0 -191 312 -191 321 0 2 50 0 111 -5 l112 -9 -7 -91z m242 69 c50
-4 92 -9 92 -12 0 -2 -53 -66 -117 -141 -64 -75 -118 -139 -120 -141 -10 -14
-9 20 3 149 7 80 13 149 14 153 0 5 8 6 18 3 9 -2 59 -8 110 -11z m-66 -428
c98 -36 172 -83 247 -158 110 -110 171 -235 190 -389 26 -204 -41 -392 -194
-546 -65 -65 -98 -90 -167 -123 -136 -66 -285 -87 -421 -60 l-56 12 43 61
c104 147 148 278 148 451 1 127 -17 213 -67 322 -59 128 -154 241 -265 316
l-52 35 38 24 c115 71 190 88 354 84 113 -3 146 -8 202 -29z m-815 -103 c22
-6 21 -7 -16 -58 -57 -76 -88 -135 -116 -215 -113 -333 13 -696 309 -894 l38
-25 -23 -16 c-96 -62 -223 -97 -354 -97 -244 0 -442 115 -571 329 -58 96 -86
200 -87 322 -1 175 53 323 163 442 l57 62 64 -27 c124 -52 207 -76 218 -64 10
13 70 157 91 221 l12 39 97 -6 c53 -3 106 -9 118 -13z m201 -90 c320 -205 397
-657 165 -958 -59 -76 -60 -76 -141 -22 -175 116 -278 298 -289 512 -7 126 13
223 67 332 39 75 112 172 131 172 6 0 36 -16 67 -36z"/>
<path d="M792 1322 c-27 -157 -80 -204 -267 -238 l-40 -7 70 -12 c82 -15 141
-37 172 -67 28 -26 60 -109 69 -180 l7 -53 23 91 c25 103 42 135 88 163 35 22
139 51 182 51 44 0 21 11 -55 26 -156 29 -193 70 -228 254 l-8 45 -13 -73z"/>
</g>
</svg>
